<?xml version="1.0" encoding="UTF-8" standalone="no"?>
<!-- Created with Inkscape (http://www.inkscape.org/) -->

<svg
   width="50mm"
   height="50.007408mm"
   viewBox="0 0 50 50.007408"
   version="1.1"
   id="svg5"
   inkscape:version="1.1 (c68e22c387, 2021-05-23)"
   sodipodi:docname="concertistamidi.svg"
   inkscape:export-filename="/home/carlos/Escritorio/icono5.png"
   inkscape:export-xdpi="100"
   inkscape:export-ydpi="100"
   xmlns:inkscape="http://www.inkscape.org/namespaces/inkscape"
   xmlns:sodipodi="http://sodipodi.sourceforge.net/DTD/sodipodi-0.dtd"
   xmlns:xlink="http://www.w3.org/1999/xlink"
   xmlns="http://www.w3.org/2000/svg"
   xmlns:svg="http://www.w3.org/2000/svg">
  <sodipodi:namedview
     id="namedview7"
     pagecolor="#ffffff"
     bordercolor="#666666"
     borderopacity="1.0"
     inkscape:pageshadow="2"
     inkscape:pageopacity="0.0"
     inkscape:pagecheckerboard="0"
     inkscape:document-units="mm"
     showgrid="false"
     inkscape:zoom="1.5536476"
     inkscape:cx="7.4019359"
     inkscape:cy="49.238965"
     inkscape:window-width="1920"
     inkscape:window-height="1017"
     inkscape:window-x="0"
     inkscape:window-y="0"
     inkscape:window-maximized="1"
     inkscape:current-layer="layer1"
     fit-margin-top="0"
     fit-margin-left="0"
     fit-margin-right="0"
     fit-margin-bottom="0" />
  <defs
     id="defs2">
    <linearGradient
       inkscape:collect="always"
       id="linearGradient1082">
      <stop
         style="stop-color:#2459ef;stop-opacity:1"
         offset="0"
         id="stop1078" />
      <stop
         style="stop-color:#249fee;stop-opacity:1"
         offset="1"
         id="stop1080" />
    </linearGradient>
    <linearGradient
       inkscape:collect="always"
       xlink:href="#linearGradient1082"
       id="linearGradient1084"
       x1="79.633286"
       y1="54.290386"
       x2="79.53759"
       y2="79.259544"
       gradientUnits="userSpaceOnUse"
       gradientTransform="matrix(0.99155696,0,0,1.1301044,-46.411919,-55.407543)" />
    <filter
       style="color-interpolation-filters:sRGB"
       inkscape:label="Drop Shadow"
       id="filter16984"
       x="-0.062503617"
       y="-0.022826714"
       width="1.1252156"
       height="1.0456813">
      <feFlood
         flood-opacity="0.498039"
         flood-color="rgb(0,0,0)"
         result="flood"
         id="feFlood16974" />
      <feComposite
         in="flood"
         in2="SourceGraphic"
         operator="in"
         result="composite1"
         id="feComposite16976" />
      <feGaussianBlur
         in="composite1"
         stdDeviation="0.4"
         result="blur"
         id="feGaussianBlur16978" />
      <feOffset
         dx="0"
         dy="0"
         result="offset"
         id="feOffset16980" />
      <feComposite
         in="SourceGraphic"
         in2="offset"
         operator="over"
         result="composite2"
         id="feComposite16982" />
    </filter>
  </defs>
  <g
     inkscape:label="Capa 1"
     inkscape:groupmode="layer"
     id="layer1"
     transform="translate(-7.1999998,-5.9259996)">
    <rect
       style="fill:url(#linearGradient1084);fill-opacity:1;stroke:none;stroke-width:0.280519;stroke-linecap:round;stroke-linejoin:round"
       id="rect55"
       width="50"
       height="50"
       x="7.1999998"
       y="5.9259996"
       ry="25"
       inkscape:export-filename="/home/carlos/Escritorio/Icono.png"
       inkscape:export-xdpi="65.014366"
       inkscape:export-ydpi="65.014366" />
    <path
       style="font-variation-settings:normal;fill:#ffffff;fill-opacity:0.993325;stroke:#ffffff;stroke-width:0.940011;stroke-linecap:round;stroke-linejoin:round;stroke-miterlimit:4;stroke-dasharray:none;stroke-dashoffset:0;stroke-opacity:1;paint-order:stroke fill markers;filter:url(#filter16984);stop-color:#000000"
       d="m 31.602843,45.501642 c -2.608552,-1.525151 -3.830652,-4.992303 -3.574689,-6.824306 0.221052,-3.168766 1.852474,-5.683382 5.600683,-6.828113 3.475449,-0.695835 9.283571,0.153426 10.029103,6.274695 0.773643,3.813028 -1.296395,10.72745 -10.283899,11.045728 -8.17104,0.11851 -14.117191,-7.191681 -11.957362,-15.013727 3.733825,-9.578137 15.736098,-15.376732 19.081436,-20.564054 0.724492,-1.193898 3.025643,-8.5084334 0.04577,-7.278604 -2.521333,1.7692104 -4.892758,4.25295 -5.456603,6.134753 0,0 0.348294,25.771287 1.141184,39.53365 0.08032,14.974415 -11.597591,12.984131 -13.84912,9.747373 -1.327318,-1.898174 -1.425086,-3.378468 -1.060596,-4.562778 0.711902,-2.313133 3.209292,-3.328137 4.85964,-3.149011 1.753894,0.266769 3.156609,2.049299 2.860255,4.514458 -0.130691,1.289872 -1.185624,3.101523 -3.38726,3.007873 -1.104326,-0.167509 -1.114848,-0.573844 -1.554608,-0.426172 0,0 -0.211393,0.174953 0.01348,0.454056 2.737094,1.757348 6.687735,1.449565 9.109871,-1.69201 2.301813,-3.231814 1.800717,-6.089908 1.816553,-9.016925 -1.222895,-12.924241 -0.486187,-25.481786 -1.077103,-38.827345 -0.50068,-6.9716758 5.477531,-15.6492845 8.6945,-6.989046 1.117423,3.1983371 0.18815,11.148058 -4.923479,16.5244 -3.932137,4.268929 -8.588926,7.486386 -11.886966,12.389413 -3.492322,5.871266 0.09923,13.531053 8.037724,13.754578 6.358877,-0.41822 8.763393,-6.478313 8.113349,-8.93739 -1.453338,-4.502088 -10.559671,-4.567211 -12.64647,0.427395 -0.565693,1.619497 -0.08915,2.488351 0.392876,3.52034 0.31579,0.531695 0.761635,1.253576 2.079768,2.326457 0.345519,0.245772 0.242355,0.616892 -0.218041,0.454312 z"
       id="path961"
       sodipodi:nodetypes="cccccccccccccccccccccccccccccc"
       transform="matrix(0.74270822,-0.05404413,0.05404413,0.74270822,6.1747658,8.3813581)"
       inkscape:export-filename="/home/carlos/Escritorio/Icono.png"
       inkscape:export-xdpi="65.014366"
       inkscape:export-ydpi="65.014366" />
  </g>
</svg>
